{
  "accessors": [
    {
      "bufferView": 3,
      "componentType": 5126,
      "count": 785,
      "max": [
        0.5643438100814819,
        1.1924126148223877,
        0.1842844933271408
      ],
      "min": [
        -0.5643438100814819,
        -0.0033032000064849854,
        -0.18788571655750275
      ],
      "type": "VEC3"
    },
    {
      "bufferView": 3,
      "byteOffset": 9420,
      "componentType": 5126,
      "count": 785,
      "max": [
        1.0,
        1.0,
        1.0
      ],
      "min": [
        -1.0,
        -1.0,
        -0.9999866485595703
      ],
      "type": "VEC3"
    },
    {
      "bufferView": 2,
      "componentType": 5126,
      "count": 785,
      "max": [
        0.9881006479263306,
        0.9878921508789063
      ],
      "min": [
        0.009182482957839966,
        0.020372986793518066
      ],
      "type": "VEC2"
    },
    {
      "bufferView": 1,
      "componentType": 5125,
      "count": 3216,
      "type": "SCALAR"
    },
    {
      "bufferView": 3,
      "byteOffset": 18840,
      "componentType": 5126,
      "count": 100,
      "max": [
        0.14355222880840302,
        1.057582139968872,
        0.16353480517864227
      ],
      "min": [
        -0.14355222880840302,
        0.9389089941978455,
        0.10587465018033981
      ],
      "type": "VEC3"
    },
    {
      "bufferView": 3,
      "byteOffset": 20040,
      "componentType": 5126,
      "count": 100,
      "max": [
        0.9911805987358093,
        0.82768315076828,
        0.9738299250602722
      ],
      "min": [
        -0.9911805987358093,
        -0.9418514370918274,
        -0.911452054977417
      ],
      "type": "VEC3"
    },
    {
      "bufferView": 2,
      "byteOffset": 6280,
      "componentType": 5126,
      "count": 100,
      "max": [
        0.9786194562911987,
        0.9791645407676697
      ],
      "min": [
        0.022492021322250366,
        0.022369742393493652
      ],
      "type": "VEC2"
    },
    {
      "bufferView": 1,
      "byteOffset": 12864,
      "componentType": 5125,
      "count": 432,
      "type": "SCALAR"
    },
    {
      "bufferView": 3,
      "byteOffset": 21240,
      "componentType": 5126,
      "count": 206,
      "max": [
        0.18941697478294373,
        1.233763337135315,
        0.24598455429077148
      ],
      "min": [
        -0.18941697478294373,
        0.9599565863609314,
        -0.1789487600326538
      ],
      "type": "VEC3"
    },
    {
      "bufferView": 3,
      "byteOffset": 23712,
      "componentType": 5126,
      "count": 206,
      "max": [
        0.9990819096565247,
        0.9982640743255615,
        0.9754998683929443
      ],
      "min": [
        -0.9990819096565247,
        -0.9894022941589355,
        -0.9904453158378601
      ],
      "type": "VEC3"
    },
    {
      "bufferView": 2,
      "byteOffset": 7080,
      "componentType": 5126,
      "count": 206,
      "max": [
        0.9840545654296875,
        0.364223837852478
      ],
      "min": [
        0.42704659700393677,
        0.00887906551361084
      ],
      "type": "VEC2"
    },
    {
      "bufferView": 1,
      "byteOffset": 14592,
      "componentType": 5125,
      "count": 708,
      "type": "SCALAR"
    },
    {
      "bufferView": 3,
      "byteOffset": 26184,
      "componentType": 5126,
      "count": 30,
      "max": [
        0.03898342698812485,
        0.9492449164390564,
        0.1601647138595581
      ],
      "min": [
        -0.03898342698812485,
        0.9156109690666199,
        0.14198318123817444
      ],
      "type": "VEC3"
    },
    {
      "bufferView": 3,
      "byteOffset": 26544,
      "componentType": 5126,
      "count": 30,
      "max": [
        0.8637900948524475,
        0.7412000894546509,
        0.9945799708366394
      ],
      "min": [
        -0.8637900948524475,
        -0.8654814958572388,
        -0.9945799708366394
      ],
      "type": "VEC3"
    },
    {
      "bufferView": 2,
      "byteOffset": 8728,
      "componentType": 5126,
      "count": 30,
      "max": [
        0.41891130805015564,
        0.10738003253936768
      ],
      "min": [
        0.41891130805015564,
        0.10738003253936768
      ],
      "type": "VEC2"
    },
    {
      "bufferView": 1,
      "byteOffset": 17424,
      "componentType": 5125,
      "count": 180,
      "type": "SCALAR"
    },
    {
      "bufferView": 5,
      "componentType": 5126,
      "count": 13,
      "max": [
        1.0,
        0.8304186463356018,
        1.0,
        0.0,
        0.8304187059402466,
        1.0000001192092896,
        3.997079602413578e-06,
        0.0,
        1.0,
        0.0,
        1.0,
        0.0,
        0.7326325178146362,
        0.3972102999687195,
        0.1026492789387703,
        1.0
      ],
      "min": [
        -0.5656608939170837,
        -0.8304186463356018,
        -1.0,
        0.0,
        -0.8304187059402466,
        -1.0000001192092896,
        0.0,
        0.0,
        -1.0,
        -6.807759973526117e-07,
        -7.549790836947068e-08,
        0.0,
        -0.7326325178146362,
        -0.889456033706665,
        -3.6644325973611558e-06,
        1.0
      ],
      "type": "MAT4"
    },
    {
      "bufferView": 0,
      "componentType": 5123,
      "count": 785,
      "type": "VEC4"
    },
    {
      "bufferView": 4,
      "componentType": 5126,
      "count": 785,
      "max": [
        1.0,
        0.5,
        0.0,
        0.0
      ],
      "min": [
        0.5,
        0.0,
        0.0,
        0.0
      ],
      "type": "VEC4"
    }
  ],
  "asset": {
    "extras": {
      "author": "micaelsampaio (https://sketchfab.com/micaelsampaio)",
      "license": "CC-BY-4.0 (http://creativecommons.org/licenses/by/4.0/)",
      "source": "https://sketchfab.com/3d-models/animal-control-officer-low-poly-stylized-e5a423b0271c41efa8f7cf07b38120ac",
      "title": "Animal Control Officer Low Poly Stylized"
    },
    "generator": "Sketchfab-15.55.0",
    "version": "2.0"
  },
  "bufferViews": [
    {
      "buffer": 0,
      "byteLength": 6280,
      "byteStride": 8,
      "name": "shortBufferViews",
      "target": 34962
    },
    {
      "buffer": 0,
      "byteLength": 18144,
      "byteOffset": 6280,
      "name": "floatBufferViews",
      "target": 34963
    },
    {
      "buffer": 0,
      "byteLength": 8968,
      "byteOffset": 24424,
      "byteStride": 8,
      "name": "floatBufferViews",
      "target": 34962
    },
    {
      "buffer": 0,
      "byteLength": 26904,
      "byteOffset": 33392,
      "byteStride": 12,
      "name": "floatBufferViews",
      "target": 34962
    },
    {
      "buffer": 0,
      "byteLength": 12560,
      "byteOffset": 60296,
      "byteStride": 16,
      "name": "floatBufferViews",
      "target": 34962
    },
    {
      "buffer": 0,
      "byteLength": 832,
      "byteOffset": 72856,
      "name": "floatBufferViews"
    }
  ],
  "buffers": [
    {
      "byteLength": 73688,
      "uri": "scene.bin"
    }
  ],
  "extensionsUsed": [
    "KHR_materials_specular"
  ],
  "images": [
    {
      "uri": "textures/animal_control_baseColor.png"
    },
    {
      "uri": "textures/animal_control_specularf0.png"
    },
    {
      "uri": "textures/eyes_baseColor.png"
    }
  ],
  "materials": [
    {
      "doubleSided": true,
      "extensions": {
        "KHR_materials_specular": {
          "specularColorFactor": [
            1.0,
            1.0,
            1.0
          ],
          "specularFactor": 1.0,
          "specularTexture": {
            "index": 1
          }
        }
      },
      "name": "animal_control",
      "pbrMetallicRoughness": {
        "baseColorTexture": {
          "index": 0
        },
        "metallicFactor": 0.0,
        "roughnessFactor": 0.4
      }
    },
    {
      "doubleSided": true,
      "name": "eyes",
      "pbrMetallicRoughness": {
        "baseColorTexture": {
          "index": 2
        },
        "metallicFactor": 0.0,
        "roughnessFactor": 0.9
      }
    }
  ],
  "meshes": [
    {
      "name": "Object_0",
      "primitives": [
        {
          "attributes": {
            "JOINTS_0": 17,
            "NORMAL": 1,
            "POSITION": 0,
            "TEXCOORD_0": 2,
            "WEIGHTS_0": 18
          },
          "indices": 3,
          "material": 0,
          "mode": 4
        }
      ]
    },
    {
      "name": "Object_1",
      "primitives": [
        {
          "attributes": {
            "NORMAL": 5,
            "POSITION": 4,
            "TEXCOORD_0": 6
          },
          "indices": 7,
          "material": 1,
          "mode": 4
        }
      ]
    },
    {
      "name": "Object_2",
      "primitives": [
        {
          "attributes": {
            "NORMAL": 9,
            "POSITION": 8,
            "TEXCOORD_0": 10
          },
          "indices": 11,
          "material": 0,
          "mode": 4
        }
      ]
    },
    {
      "name": "Object_3",
      "primitives": [
        {
          "attributes": {
            "NORMAL": 13,
            "POSITION": 12,
            "TEXCOORD_0": 14
          },
          "indices": 15,
          "material": 0,
          "mode": 4
        }
      ]
    }
  ],
  "nodes": [
    {
      "children": [
        1
      ],
      "matrix": [
        1.0,
        0.0,
        0.0,
        0.0,
        0.0,
        2.220446049250313e-16,
        -1.0,
        0.0,
        0.0,
        1.0,
        2.220446049250313e-16,
        0.0,
        0.0,
        0.0,
        0.0,
        1.0
      ],
      "name": "Sketchfab_model"
    },
    {
      "children": [
        2
      ],
      "name": "root"
    },
    {
      "children": [
        3
      ],
      "matrix": [
        1.0,
        0.0,
        0.0,
        0.0,
        0.0,
        2.220446049250313e-16,
        1.0,
        0.0,
        0.0,
        -1.0,
        2.220446049250313e-16,
        0.0,
        0.0,
        0.0,
        0.0,
        1.0
      ],
      "name": "GLTF_SceneRootNode"
    },
    {
      "children": [
        4
      ],
      "name": "Armature_16"
    },
    {
      "children": [
        5,
        7,
        6
      ],
      "name": "GLTF_created_0"
    },
    {
      "children": [
        8
      ],
      "name": "GLTF_created_0_rootJoint"
    },
    {
      "name": "body_15"
    },
    {
      "mesh": 0,
      "name": "Object_7",
      "skin": 0
    },
    {
      "children": [
        9,
        22,
        24
      ],
      "name": "root_14",
      "translation": [
        0.0,
        0.45860540866851807,
        0.0
      ]
    },
    {
      "children": [
        10
      ],
      "name": "spine1_9",
      "rotation": [
        0.0,
        1.1920927533992653e-07,
        0.0,
        1.0
      ],
      "scale": [
        1.0,
        0.9999999403953552,
        1.0
      ],
      "translation": [
        0.0,
        0.11646896600723267,
        0.0
      ]
    },
    {
      "children": [
        11,
        18,
        20
      ],
      "name": "spine2_8",
      "rotation": [
        0.0,
        7.105427357601002e-15,
        0.0,
        1.0
      ],
      "translation": [
        0.0,
        0.15901857614517212,
        0.0
      ]
    },
    {
      "children": [
        12,
        14,
        16
      ],
      "name": "head_3",
      "rotation": [
        0.0,
        -1.1920928244535389e-07,
        0.0,
        1.0
      ],
      "translation": [
        0.0,
        0.1553630828857422,
        0.0
      ]
    },
    {
      "children": [
        13
      ],
      "matrix": [
        1.0,
        0.0,
        0.0,
        0.0,
        0.0,
        1.0000001192092896,
        0.0,
        0.0,
        0.0,
        0.0,
        1.0,
        0.0,
        0.0,
        -0.889456033706665,
        0.0,
        1.0
      ],
      "name": "eyes_0"
    },
    {
      "mesh": 1,
      "name": "Object_13"
    },
    {
      "children": [
        15
      ],
      "matrix": [
        1.0,
        0.0,
        0.0,
        0.0,
        0.0,
        1.0000001192092896,
        0.0,
        0.0,
        0.0,
        0.0,
        1.0,
        0.0,
        0.0,
        -0.889456033706665,
        0.0,
        1.0
      ],
      "name": "hat_1"
    },
    {
      "mesh": 2,
      "name": "Object_15"
    },
    {
      "children": [
        17
      ],
      "matrix": [
        1.0,
        0.0,
        0.0,
        0.0,
        0.0,
        1.0000001192092896,
        0.0,
        0.0,
        0.0,
        0.0,
        1.0,
        0.0,
        0.0,
        -0.8804793953895569,
        0.0,
        1.0
      ],
      "name": "mouth_2"
    },
    {
      "mesh": 3,
      "name": "Object_17"
    },
    {
      "children": [
        19
      ],
      "name": "left_arm_up_5",
      "rotation": [
        -2.3204204353532987e-06,
        -9.638980600357172e-07,
        -0.8823661208152771,
        0.4705635607242584
      ],
      "scale": [
        0.9999999403953552,
        0.9999999403953552,
        1.0
      ],
      "translation": [
        0.16243596374988556,
        0.03917115926742554,
        1.4262261061048775e-07
      ]
    },
    {
      "name": "left_arm_4",
      "rotation": [
        2.7655366352519195e-07,
        1.1979597047684365e-07,
        -0.005148344673216343,
        0.9999867677688599
      ],
      "scale": [
        1.0,
        0.9999998807907104,
        1.0
      ],
      "translation": [
        -1.4901402778377815e-08,
        0.2217438817024231,
        -5.684341886080802e-14
      ]
    },
    {
      "children": [
        21
      ],
      "name": "right_arm_up_7",
      "rotation": [
        -2.5307929263362894e-06,
        8.517070000380045e-07,
        0.8823661208152771,
        0.4705635607242584
      ],
      "scale": [
        0.9999999403953552,
        0.9999999403953552,
        1.0
      ],
      "translation": [
        -0.16243596374988556,
        0.03917115926742554,
        6.516710016057914e-08
      ]
    },
    {
      "name": "right_arm_6",
      "rotation": [
        2.7655354983835423e-07,
        -1.1979608416368137e-07,
        0.005148344673216343,
        0.9999867677688599
      ],
      "scale": [
        1.0,
        0.9999998807907104,
        1.0
      ],
      "translation": [
        1.4901402778377815e-08,
        0.2217438817024231,
        1.7053025658242404e-13
      ]
    },
    {
      "children": [
        23
      ],
      "name": "left_leg_up_11",
      "rotation": [
        0.7071068286895752,
        0.0,
        -0.7071068286895752,
        0.0
      ],
      "scale": [
        1.0,
        0.9999999403953552,
        1.0
      ],
      "translation": [
        0.1026492789387703,
        -0.06139513850212097,
        5.177243167509005e-08
      ]
    },
    {
      "name": "left_leg_10",
      "rotation": [
        0.0,
        1.5893260041366375e-08,
        0.0,
        1.0
      ],
      "translation": [
        0.0,
        0.16862739622592926,
        -2.2620794126737565e-15
      ]
    },
    {
      "children": [
        25
      ],
      "name": "right_leg_up_13",
      "rotation": [
        0.7071068286895752,
        0.0,
        0.7071068286895752,
        0.0
      ],
      "scale": [
        1.0,
        0.9999999403953552,
        1.0
      ],
      "translation": [
        -0.1026492789387703,
        -0.06139513850212097,
        5.177243167509005e-08
      ]
    },
    {
      "name": "right_leg_12",
      "rotation": [
        0.0,
        -1.5893260041366375e-08,
        0.0,
        1.0
      ],
      "translation": [
        0.0,
        0.16862739622592926,
        -2.2620794126737565e-15
      ]
    }
  ],
  "samplers": [
    {
      "magFilter": 9729,
      "minFilter": 9987,
      "wrapS": 10497,
      "wrapT": 10497
    }
  ],
  "scene": 0,
  "scenes": [
    {
      "name": "Sketchfab_Scene",
      "nodes": [
        0
      ]
    }
  ],
  "skins": [
    {
      "inverseBindMatrices": 16,
      "joints": [
        5,
        8,
        9,
        10,
        11,
        18,
        19,
        20,
        21,
        22,
        23,
        24,
        25
      ],
      "skeleton": 5
    }
  ],
  "textures": [
    {
      "sampler": 0,
      "source": 0
    },
    {
      "sampler": 0,
      "source": 1
    },
    {
      "sampler": 0,
      "source": 2
    }
  ]
}
